<?xml version="1.0" encoding="UTF-8" standalone="no"?>
<svg
   width="633"
   height="308.1499"
   viewBox="0 0 632.99998 308.1499"
   role="img"
   artist="Katerina Limpitsouni"
   source="https://undraw.co/"
   version="1.1"
   id="svg24"
   sodipodi:docname="car.svg"
   inkscape:version="1.4 (e7c3feb1, 2024-10-09)"
   xmlns:inkscape="http://www.inkscape.org/namespaces/inkscape"
   xmlns:sodipodi="http://sodipodi.sourceforge.net/DTD/sodipodi-0.dtd"
   xmlns="http://www.w3.org/2000/svg"
   xmlns:svg="http://www.w3.org/2000/svg">
  <defs
     id="defs24" />
  <sodipodi:namedview
     id="namedview24"
     pagecolor="#ffffff"
     bordercolor="#000000"
     borderopacity="0.25"
     inkscape:showpageshadow="2"
     inkscape:pageopacity="0.0"
     inkscape:pagecheckerboard="0"
     inkscape:deskcolor="#d1d1d1"
     inkscape:zoom="0.66733329"
     inkscape:cx="355.89413"
     inkscape:cy="42.707295"
     inkscape:window-width="1720"
     inkscape:window-height="692"
     inkscape:window-x="0"
     inkscape:window-y="38"
     inkscape:window-maximized="0"
     inkscape:current-layer="svg24" />
  <polygon
     points="161.68325,557.5 161.68325,493.59697 69.4789,489.5 69.4789,509.48252 78,543 "
     fill="#2f2e43"
     stroke-width="0"
     id="polygon5"
     transform="translate(-48.5,-315.8501)" />
  <rect
     x="106.5"
     y="157.1499"
     width="427"
     height="100"
     fill="#2f2e43"
     stroke-width="0"
     id="rect5" />
  <path
     d="m 127.5,244.1499 c 0,28.16652 -10.83333,51 -47.5,51 -31.66667,0 -42.5,-22.83348 -42.5,-51 0,-28.16652 16.26647,-51 42.5,-51 26.23353,0 47.5,22.83348 47.5,51 z"
     fill="#2f2e43"
     stroke-width="0"
     id="path6" />
  <ellipse
     cx="67.5"
     cy="241.6499"
     rx="20"
     ry="39.5"
     fill="#ffffff"
     stroke-width="0"
     id="ellipse6" />
  <circle
     cx="67.5"
     cy="238.1499"
     r="14"
     fill="#2f2e43"
     stroke-width="0"
     id="circle6" />
  <ellipse
     cx="527.5"
     cy="234.1499"
     rx="57"
     ry="64"
     fill="#2f2e43"
     stroke-width="0"
     id="ellipse7" />
  <ellipse
     cx="257.5"
     cy="240.1499"
     rx="44"
     ry="48"
     fill="#2f2e43"
     stroke-width="0"
     id="ellipse8" />
  <ellipse
     cx="337.5"
     cy="244.1499"
     rx="57"
     ry="64"
     fill="#2f2e43"
     stroke-width="0"
     id="ellipse9" />
  <ellipse
     cx="327"
     cy="240.1499"
     rx="35.5"
     ry="47"
     fill="#ffffff"
     stroke-width="0"
     id="ellipse10" />
  <circle
     cx="326.5"
     cy="234.1499"
     r="19"
     fill="#2f2e43"
     stroke-width="0"
     id="circle10" />
  <path
     d="M 0,211.97813 V 135.8762 c 0,-6.68131 5.41627,-12.09758 12.09758,-12.09758 h 16.14697 c 0,0 13.25545,-79.628721 38.25545,-90.628721 25,-11 249,-61 372,-12 l 41,75 c 0,0 93,0 103,21.000001 0,0 44,-11 48,37 l -11,56 -4,20 -217,-7 -40,-5 c 0,0 -6,-46 -35,-46 -29,0 -41,7 -41,7 0,0 -22,36 -15,72 H 104.55839 c 0,0 -7.05839,-56 -40.05839,-57 -15.0264,-0.45535 -30,-6 -35,33 L 11.59048,225.02504 C 4.97946,224.24068 0,218.63551 0,211.97812 Z"
     fill="#016391"
     stroke-width="0"
     id="path10" />
  <path
     d="M 471.84789,94.649749 H 276.20238 c -6.44775,0 -11.875,-4.62012 -12.90527,-10.98486 l -7.36572,-45.53418 c -0.52881,-3.27148 0.29785,-6.51318 2.32861,-9.12842 2.02881,-2.61279 4.96045,-4.21484 8.25586,-4.51221 106.33057,-9.59375 149.72266,-2.64648 163.44336,0.78516 8.42334,2.10645 15.50684,8.1333 18.94824,16.12158 z"
     fill="#ffffff"
     stroke-width="0"
     id="path11" />
  <path
     d="m 189.30444,103.79525 c -1.5708,0 -3.10596,-0.0322 -4.60156,-0.10107 -2.51709,-0.11572 -4.86719,-1.30225 -6.44775,-3.25537 -1.57129,-1.941891 -2.23828,-4.469731 -1.82959,-6.935061 l 7.92725,-47.85645 c 0.62891,-3.79639 3.73438,-6.78271 7.55127,-7.2627 l 38.08154,-4.79297 c 4.50049,-0.56836 8.65137,2.34668 9.64502,6.77783 l 10.24316,45.69434 c 0.51318,2.28857 0.104,4.63867 -1.15234,6.61768 -1.25391,1.9751 -3.20215,3.34326 -5.48584,3.85156 -12.62207,2.80908 -35.53613,7.261721 -53.93115,7.262211 z"
     fill="#ffffff"
     stroke-width="0"
     id="path12" />
  <path
     d="m 79.56664,112.92953 c -2.37891,0 -4.63672,-1.0835 -6.12402,-2.96436 -1.59912,-2.02197 -2.09521,-4.69922 -1.32764,-7.16162 6.13428,-19.667971 17.43262,-53.110841 24.18213,-56.110841 6.72168,-2.9873 41.37256,-5.64746 61.42969,-6.96729 2.39648,-0.1543 4.69434,0.7749 6.30273,2.55811 1.61084,1.78564 2.30273,4.16992 1.89893,6.54199 l -8.97217,52.744631 c -0.60596,3.56299 -3.54736,6.22705 -7.15283,6.47852 l -69.69092,4.8623 c -0.18213,0.0127 -0.36475,0.0186 -0.5459,0.0186 z"
     fill="#ffffff"
     stroke-width="0"
     id="path13" />
  <polygon
     points="211.85346,429 306.20602,429 293,455 296.04498,550 197,550 197,450.84003 "
     fill="none"
     stroke="#2f2e43"
     stroke-linecap="round"
     stroke-miterlimit="10"
     id="polygon13"
     transform="translate(-48.5,-315.8501)" />
  <line
     x1="118.2412"
     y1="234.1499"
     x2="148.5"
     y2="234.1499"
     fill="none"
     stroke="#2f2e43"
     stroke-linecap="round"
     stroke-miterlimit="10"
     id="line13" />
  <path
     d="m 53.75489,193.63242 c 0,0 5.74511,-67.47928 15.74511,-70.9809 l 84,-6.50162"
     fill="none"
     stroke="#2f2e43"
     stroke-linecap="round"
     stroke-miterlimit="10"
     id="path14" />
  <line
     x1="74.5"
     y1="146.1499"
     x2="87.871399"
     y2="146.1499"
     fill="none"
     stroke="#2f2e43"
     stroke-linecap="round"
     stroke-miterlimit="10"
     id="line14" />
  <rect
     x="158.27293"
     y="134.26413"
     width="17.22707"
     height="7.8857598"
     fill="none"
     stroke="#2f2e43"
     stroke-linecap="round"
     stroke-miterlimit="10"
     id="rect14" />
  <path
     d="M 257.70602,113.1499 434,106.6499 c 0,0 21.4023,11.48252 26.20115,48.24126 L 579,159.6499 c 0,0 11,-27 3.5,-42.5"
     fill="none"
     stroke="#2f2e43"
     stroke-linecap="round"
     stroke-miterlimit="10"
     id="path15" />
  <circle
     cx="425.5"
     cy="157.1499"
     r="23"
     fill="#2f2e43"
     stroke-width="0"
     id="circle15" />
  <circle
     cx="425.5"
     cy="157.1499"
     r="17"
     fill="#ffffff"
     stroke-width="0"
     id="circle16" />
  <ellipse
     cx="615"
     cy="161.6499"
     rx="18"
     ry="22"
     fill="#2f2e43"
     stroke-width="0"
     id="ellipse16" />
  <ellipse
     cx="613.5"
     cy="162.1499"
     rx="12"
     ry="18"
     fill="#ffffff"
     stroke-width="0"
     id="ellipse17" />
  <ellipse
     cx="422"
     cy="192.1499"
     rx="6"
     ry="8.5"
     fill="#ffffff"
     stroke-width="0"
     id="ellipse18" />
  <ellipse
     cx="611.5"
     cy="200.1499"
     rx="5"
     ry="8"
     fill="#ffffff"
     stroke-width="0"
     id="ellipse19" />
  <path
     d="m 593.5,201.1499 h -145 l 3,-20.43277 c 0,-10.80668 8.76055,-19.56723 19.56723,-19.56723 h 102.06411 c 11.2493,0 20.36866,9.11936 20.36866,20.36866 z"
     fill="#2f2e43"
     stroke-width="0"
     id="path19"
     inkscape:label="path19" />
</svg>
