<?xml version="1.0" encoding="UTF-8" standalone="no"?>
<svg
   width="272.46881"
   height="128.04004"
   viewBox="0 0 272.46882 128.04004"
   role="img"
   artist="Katerina Limpitsouni"
   source="https://undraw.co/"
   version="1.1"
   id="svg58"
   sodipodi:docname="clouds.svg"
   inkscape:version="1.4 (e7c3feb1, 2024-10-09)"
   xmlns:inkscape="http://www.inkscape.org/namespaces/inkscape"
   xmlns:sodipodi="http://sodipodi.sourceforge.net/DTD/sodipodi-0.dtd"
   xmlns="http://www.w3.org/2000/svg"
   xmlns:svg="http://www.w3.org/2000/svg">
  <defs
     id="defs58" />
  <sodipodi:namedview
     id="namedview58"
     pagecolor="#ffffff"
     bordercolor="#000000"
     borderopacity="0.25"
     inkscape:showpageshadow="2"
     inkscape:pageopacity="0.0"
     inkscape:pagecheckerboard="0"
     inkscape:deskcolor="#d1d1d1"
     inkscape:zoom="0.54292638"
     inkscape:cx="24.86525"
     inkscape:cy="41.442083"
     inkscape:window-width="1720"
     inkscape:window-height="730"
     inkscape:window-x="0"
     inkscape:window-y="25"
     inkscape:window-maximized="0"
     inkscape:current-layer="svg58" />
  <g
     id="g58"
     transform="translate(-63.426436)">
    <circle
       cx="179.31828"
       cy="51"
       r="51"
       fill="#cccccc"
       id="circle11" />
    <path
       d="M 362.30892,97.84042 C 348.81185,83.6816 333.13643,70.765 314.57961,63.93948 a 76.71521,76.71521 0 0 0 -15.98633,-4.01734 c -0.0439,-0.006 -0.0854,0.0029 -0.12909,-6.7e-4 a 2.35576,2.35576 0 0 0 -0.26965,-0.05292 61.5388,61.5388 0 0 0 -22.84131,1.379 63.10735,63.10735 0 0 0 -10.63519,3.7049 93.00467,93.00467 0 0 0 -9.97943,5.65557 64.90832,64.90832 0 0 1 -22.05231,8.22678 74.1877,74.1877 0 0 1 -11.84406,1.16248 c -3.44714,0.06915 -6.698,0.1889 -9.964,1.43426 a 23.91573,23.91573 0 0 0 -14.56494,15.77051 1.55078,1.55078 0 0 0 0.68933,1.694 c 0.88349,0.63275 1.74476,1.35065 2.673,1.91437 a 8.33922,8.33922 0 0 0 2.611,0.71209 q 2.21366,0.46711 4.43292,0.90693 8.17584,1.61992 16.41962,2.86792 16.681,2.5252 33.54217,3.55755 a 373.48132,373.48132 0 0 0 67.51026,-2.029 374.77144,374.77144 0 0 0 37.4554,-6.47841 1.5139,1.5139 0 0 0 0.66192,-2.50708 z"
       fill="#f0f0f0"
       id="path12"
       transform="translate(-26.84086,-49.49819)" />
    <path
       d="m 208.57961,131.93948 a 76.71521,76.71521 0 0 0 -15.98633,-4.01734 c -0.0439,-0.006 -0.0854,0.003 -0.12909,-6.7e-4 a 2.35576,2.35576 0 0 0 -0.26965,-0.0529 61.5388,61.5388 0 0 0 -22.84131,1.379 63.10735,63.10735 0 0 0 -10.63519,3.7049 93.00467,93.00467 0 0 0 -9.97943,5.65557 64.90832,64.90832 0 0 1 -22.05231,8.22681 74.1877,74.1877 0 0 1 -11.84406,1.16248 c -3.44714,0.0692 -6.698,0.1889 -9.964,1.43426 a 23.91573,23.91573 0 0 0 -14.56494,15.77051 1.55078,1.55078 0 0 0 0.68933,1.694 c 0.88349,0.63275 1.74476,1.35065 2.673,1.91437 a 8.33922,8.33922 0 0 0 2.611,0.71209 q 2.21366,0.46712 4.43292,0.90693 8.17584,1.61992 16.41962,2.86792 16.681,2.5252 33.54217,3.55755 a 373.48132,373.48132 0 0 0 67.51026,-2.029 374.77144,374.77144 0 0 0 37.4554,-6.47844 1.5139,1.5139 0 0 0 0.66193,-2.50708 C 242.81185,151.6816 227.13643,138.765 208.57961,131.93948 Z"
       fill="#f0f0f0"
       id="path13"
       transform="translate(-26.84086,-49.49819)" />
  </g>
  <path
     id="Path_2331-2914"
     data-name="Path 2331"
     d="m 192.31457,87.464 12.795,-10.233 c -9.94,-1.1 -14.024,4.324 -15.7,8.615 -7.765,-3.224 -16.219,1 -16.219,1 l 25.6,9.294 a 19.372,19.372 0 0 0 -6.481,-8.677 z"
     fill="#090814" />
  <path
     id="Path_2331-2914-5"
     data-name="Path 2331"
     d="m 28.034024,46.63552 12.795,-10.233 c -9.94,-1.1 -14.024,4.324 -15.7,8.615 -7.765,-3.224 -16.2190006,1 -16.2190006,1 l 25.6000006,9.294 a 19.372,19.372 0 0 0 -6.481,-8.677 z"
     fill="#090814" />
</svg>
