<?xml version="1.0" encoding="UTF-8" standalone="no"?>
<svg
   width="218.68845"
   height="565.02197"
   viewBox="0 0 218.68845 565.02198"
   role="img"
   artist="Katerina Limpitsouni"
   source="https://undraw.co/"
   version="1.1"
   id="svg23"
   sodipodi:docname="flower.svg"
   inkscape:version="1.4 (e7c3feb1, 2024-10-09)"
   xmlns:inkscape="http://www.inkscape.org/namespaces/inkscape"
   xmlns:sodipodi="http://sodipodi.sourceforge.net/DTD/sodipodi-0.dtd"
   xmlns="http://www.w3.org/2000/svg"
   xmlns:svg="http://www.w3.org/2000/svg">
  <defs
     id="defs23" />
  <sodipodi:namedview
     id="namedview23"
     pagecolor="#ffffff"
     bordercolor="#000000"
     borderopacity="0.25"
     inkscape:showpageshadow="2"
     inkscape:pageopacity="0.0"
     inkscape:pagecheckerboard="0"
     inkscape:deskcolor="#d1d1d1"
     inkscape:zoom="1.0916505"
     inkscape:cx="186.41498"
     inkscape:cy="241.37763"
     inkscape:window-width="1720"
     inkscape:window-height="692"
     inkscape:window-x="0"
     inkscape:window-y="28"
     inkscape:window-maximized="0"
     inkscape:current-layer="svg23" />
  <g
     id="g17"
     transform="translate(-8.9721052e-6,2e-5)">
    <rect
       x="107.34447"
       y="155.95049"
       width="1.9995199"
       height="409.099"
       transform="rotate(-1.26058,108.3444,360.50058)"
       fill="#3f3d56"
       id="rect12" />
    <path
       d="m 107.59862,336.66016 c -0.10254,-0.34961 -10.01758,-35.3584 10.79932,-68.75146 l 1.69727,1.05811 c -20.34814,32.6416 -10.67773,66.78906 -10.57764,67.13086 l -1.91895,0.5625 z"
       fill="#3f3d56"
       id="path13" />
    <path
       d="m 118.90075,269.80903 c 0,0 -6.42539,-43.91713 52.76688,-55.97014 12.33172,-2.51104 23.92488,-4.22717 34.55197,-5.3706 12.54419,-1.34971 17.43734,15.82195 6.10524,21.36829 -16.41144,8.03236 -31.84935,18.15263 -39.89591,30.13712 -22.19228,33.05303 -53.52818,9.83533 -53.52818,9.83533 z"
       fill="#016391"
       id="path14" />
    <path
       d="m 111.08984,463.66016 -1.91895,-0.5625 c 0.0996,-0.34082 9.75146,-34.52051 -10.57764,-67.13086 l 1.69727,-1.05859 c 20.81689,33.39355 10.90186,68.40234 10.79932,68.75195 z"
       fill="#3f3d56"
       id="path15" />
    <path
       d="m 99.78771,396.80903 c 0,0 6.42539,-43.91713 -52.76688,-55.97014 -12.33172,-2.51104 -23.92488,-4.22717 -34.55197,-5.3706 -12.54419,-1.34971 -17.43734,15.82195 -6.10524,21.36829 16.41144,8.03236 31.84935,18.15263 39.89591,30.13712 22.19228,33.05303 53.52818,9.83533 53.52818,9.83533 z"
       fill="#016391"
       id="path16" />
    <path
       d="m 182.17266,99.16107 c 11.91461,-3.14148 23.05627,-8.61536 22.68677,-14.03046 -0.43896,-6.4328 -16.98041,-10.74304 -31.25073,-11.39893 10.76361,-8.42084 20.6535,-20.06146 17.62909,-25.32611 -2.78052,-4.84003 -15.71533,-2.96521 -27.64935,1.29761 7.06238,-10.09698 12.02759,-21.47455 8.24622,-25.36823 -4.71039,-4.85022 -21.42804,3.5213 -32.8371,12.7749 2.22101,-14.4162 1.09821,-32.61322 -5.36774,-34.25958 -5.4093,-1.37732 -13.07581,9.20807 -18.33203,20.73907 C 112.97473,11.48845 108.27191,-2e-5 102.84424,-2e-5 c -7.73199,0 -14,23.31213 -14,38.5 0,0.85852 0.02277,1.66669 0.06195,2.43884 C 88.13013,40.0391 87.24072,39.09916 86.22644,38.11411 75.33099,27.53293 54.2406,15.78824 48.85382,21.33494 45.07245,25.22862 50.03766,36.60618 57.10004,46.70317 45.16602,42.44035 32.2312,40.56554 29.45069,45.40556 25.71461,51.90898 41.68445,68.1436 54.66541,76.01658 53.88508,75.92259 53.06525,75.84342 52.19275,75.78391 37.04016,74.75004 13.35541,79.41654 12.82904,87.13059 c -0.36951,5.4151 10.77216,10.88898 22.68677,14.03046 -11.86212,4.45905 -22.9447,11.38727 -21.93878,16.87775 1.22083,6.6637 19.84216,8.9964 34.48358,7.63098 -10.93823,10.49463 -22.79883,29.29486 -17.84906,34.80469 3.62726,4.03766 15.31641,-0.14154 25.87073,-6.50018 -5.06537,11.61615 -7.81641,24.39331 -3.17682,27.49689 6.13141,4.1015 22.94708,-10.17346 31.81299,-22.45648 -0.90338,15.02698 2.6922,35.67102 9.82648,36.48572 5.39264,0.61584 11.36853,-10.26495 15.04956,-22.02411 3.914,12.05292 10.32996,23.43976 15.8606,22.68506 7.19165,-0.98138 10.32697,-22.14203 8.98547,-37.17981 9.1452,11.77759 24.53625,24.3736 30.34247,20.48962 4.63959,-3.10358 1.88855,-15.88074 -3.17682,-27.49689 10.55432,6.35864 22.24347,10.53784 25.87073,6.50018 4.94977,-5.50983 -6.91083,-24.31006 -17.84906,-34.80469 14.64142,1.36542 33.26276,-0.96729 34.48358,-7.63098 1.00592,-5.49048 -10.07666,-12.4187 -21.93878,-16.87775 z m -64.15381,42.50531 c -3.06262,0.41791 -5.86304,1.01471 -7.99268,2.5387 -2.26245,-2.24597 -5.56689,-2.92999 -9.24103,-3.34955 -4.11389,-0.46979 -7.85236,-0.51514 -10.70325,1.85889 -1.04315,-2.89948 -3.60822,-4.95929 -6.59619,-6.95807 -2.56921,-1.71863 -5.06079,-3.12939 -7.66541,-3.40143 -0.20349,-3.1814 -2.22272,-5.88519 -4.69403,-8.63617 -1.57574,-1.75409 -3.15228,-3.32233 -4.90167,-4.37128 2.52399,-3.07312 2.23297,-6.95728 1.45203,-11.21997 -0.55701,-3.04041 -1.28082,-5.81073 -2.90027,-7.86871 2.14056,-2.36249 2.67334,-5.6947 2.92511,-9.38409 0.27484,-4.02844 0.16064,-7.68091 -2.16461,-10.40063 6.00909,0.76434 8.909,-2.97925 11.60437,-7.67114 1.53973,-2.68018 2.77765,-5.26208 2.87177,-7.87915 3.16022,-0.41962 5.72021,-2.61823 8.29651,-5.27106 2.20081,-2.26617 4.07288,-4.51007 4.77606,-7.09271 2.52179,2.11926 5.96265,2.44 9.75867,2.44 3.698,0 7.05872,-0.30469 9.5614,-2.27948 1.94299,1.75574 4.65759,2.66644 7.65302,3.42914 2.85944,0.72809 5.55859,1.21503 8.01263,0.72498 0.89581,2.04651 2.48853,3.90491 4.30768,5.77808 2.57629,2.65283 5.13629,4.85144 8.29651,5.27106 0.0941,2.61707 1.33203,5.19897 2.87177,7.87915 1.81244,3.15491 3.716,5.88281 6.59521,7.09991 -0.33618,1.83258 -0.30023,3.84973 -0.15546,5.97186 0.25177,3.68939 0.78455,7.02167 2.92511,9.38409 -1.61945,2.05798 -2.34326,4.82831 -2.90027,7.86871 -0.78094,4.2627 -1.07196,8.14685 1.45203,11.21997 -1.74939,1.04895 -3.32593,2.61719 -4.90167,4.37128 -2.47131,2.75098 -4.49054,5.45477 -4.69403,8.63617 -2.60461,0.27203 -5.09619,1.6828 -7.66541,3.40143 -3.50903,2.34729 -6.43201,4.7804 -6.99341,8.55774 -2.63324,-1.27728 -5.7854,-1.1123 -9.19049,-0.64771 z"
       fill="#016391"
       id="path17" />
    <circle
       cx="109.84423"
       cy="99"
       r="50"
       fill="#3f3d56"
       id="circle17" />
  </g>
</svg>
