<?xml version="1.0" encoding="UTF-8" standalone="no"?>
<svg
   width="707.31"
   height="153.55"
   viewBox="0 0 707.30998 153.55"
   role="img"
   artist="Katerina Limpitsouni"
   source="https://undraw.co/"
   version="1.1"
   id="svg1"
   sodipodi:docname="ground.svg"
   inkscape:version="1.4 (e7c3feb1, 2024-10-09)"
   xmlns:inkscape="http://www.inkscape.org/namespaces/inkscape"
   xmlns:sodipodi="http://sodipodi.sourceforge.net/DTD/sodipodi-0.dtd"
   xmlns="http://www.w3.org/2000/svg"
   xmlns:svg="http://www.w3.org/2000/svg">
  <defs
     id="defs1" />
  <sodipodi:namedview
     id="namedview1"
     pagecolor="#ffffff"
     bordercolor="#000000"
     borderopacity="0.25"
     inkscape:showpageshadow="2"
     inkscape:pageopacity="0.0"
     inkscape:pagecheckerboard="0"
     inkscape:deskcolor="#d1d1d1"
     inkscape:zoom="0.75739156"
     inkscape:cx="270.00565"
     inkscape:cy="-134.67274"
     inkscape:window-width="1728"
     inkscape:window-height="1051"
     inkscape:window-x="0"
     inkscape:window-y="38"
     inkscape:window-maximized="0"
     inkscape:current-layer="svg1" />
  <path
     id="Path_2320-2903"
     data-name="Path 2320"
     d="m 616.255,61.724 c 0,0 0.622,-13.027 13.366,-11.513"
     fill="#090814" />
  <circle
     id="Ellipse_422"
     data-name="Ellipse 422"
     cx="612.659"
     cy="42.94899"
     r="6.3790002"
     fill="#016391" />
  <rect
     id="Rectangle_626"
     data-name="Rectangle 626"
     width="1.801"
     height="12.604"
     fill="#090814"
     x="611.62"
     y="53.690018" />
  <rect
     id="Rectangle_628"
     data-name="Rectangle 628"
     width="89.372002"
     height="2"
     fill="#cbcbcb"
     x="70.668999"
     y="117.55" />
  <rect
     id="Rectangle_629"
     data-name="Rectangle 629"
     width="89.372002"
     height="2"
     fill="#cbcbcb"
     x="234.66798"
     y="151.55" />
  <rect
     id="Rectangle_630"
     data-name="Rectangle 630"
     width="89.372002"
     height="2"
     fill="#cbcbcb"
     x="489.66803"
     y="125.55" />
  <path
     id="Path_2325-2908"
     data-name="Path 2325"
     d="M 539.62,44.164 496.766,4.822 c 0,0 45.714,11.191 42.854,39.342 z"
     fill="#f1f1f1" />
  <path
     id="Path_2326-2909"
     data-name="Path 2326"
     d="M 95.22,58.174 V 0 c 0,0 22.671,41.243 0,58.174 z"
     fill="#f1f1f1" />
  <path
     id="Path_2327-2910"
     data-name="Path 2327"
     d="M 96.62,58.164 53.766,18.822 c 0,0 45.714,11.191 42.854,39.342 z"
     fill="#f1f1f1" />
  <path
     id="Path_2328-2911"
     data-name="Path 2328"
     d="m 249.22,100.174 v -72.34 c 0,0 28.192,51.286 0,72.34 z"
     fill="#f1f1f1" />
  <path
     id="Path_2329-2912"
     data-name="Path 2329"
     d="M 250.961,100.161 197.671,51.24 c 0,0 56.846,13.915 53.29,48.921 z"
     fill="#f1f1f1" />
  <path
     id="Path_2330-2913"
     data-name="Path 2330"
     d="m 707.31,91.324 -0.55,1.93 -167.83,-47.8 -126.43,27.87 -161.69,27.62 -0.22,-0.06 -76.58,-21.49 -19.36,-5.43 -59.13,-16.6 -49.32,10.99 -14.42,3.21 -31.35,6.99 -0.43,-1.95 31.81,-7.09 14.36,-3.2 49.41,-11.01 0.24,0.06 58.87,16.52 19.28,5.41 76.94,21.6 161.2,-27.53 126.88,-27.97 0.25,0.06 z"
     fill="#cbcbcb" />
</svg>
