<?xml version="1.0" encoding="UTF-8" standalone="no"?>
<svg
   width="153.58789"
   height="371.82315"
   viewBox="0 0 153.58789 371.82315"
   role="img"
   artist="Katerina Limpitsouni"
   source="https://undraw.co/"
   version="1.1"
   id="svg1"
   sodipodi:docname="hiker.svg"
   inkscape:version="1.4 (e7c3feb1, 2024-10-09)"
   xmlns:inkscape="http://www.inkscape.org/namespaces/inkscape"
   xmlns:sodipodi="http://sodipodi.sourceforge.net/DTD/sodipodi-0.dtd"
   xmlns="http://www.w3.org/2000/svg"
   xmlns:svg="http://www.w3.org/2000/svg">
  <defs
     id="defs1" />
  <sodipodi:namedview
     id="namedview1"
     pagecolor="#ffffff"
     bordercolor="#000000"
     borderopacity="0.25"
     inkscape:showpageshadow="2"
     inkscape:pageopacity="0.0"
     inkscape:pagecheckerboard="0"
     inkscape:deskcolor="#d1d1d1"
     inkscape:zoom="0.76966655"
     inkscape:cx="130.57603"
     inkscape:cy="68.860989"
     inkscape:window-width="1728"
     inkscape:window-height="1051"
     inkscape:window-x="0"
     inkscape:window-y="38"
     inkscape:window-maximized="0"
     inkscape:current-layer="svg1" />
  <g
     id="g1"
     transform="translate(-443.48844,-247.31605)">
    <path
       id="Path_563-2902"
       data-name="Path 563"
       d="m 537.59761,315.21506 c 0,0 -7.043,16.363 -5.386,18.7 1.657,2.337 -20.3,-7.792 -20.3,-7.792 0,0 7.043,-16.363 7.043,-18.311 0,-1.948 18.643,7.403 18.643,7.403 z"
       fill="#ffb9b9" />
    <path
       id="Path_2334-2917"
       data-name="Path 2334"
       d="m 449.43061,594.96506 12.275,4.03 23.432,-39.927 -18.117,-5.949 z"
       fill="#ffb9b9" />
    <path
       id="Path_2336-2918"
       data-name="Path 2336"
       d="m 552.54261,605.52206 h 13.534 l 2.464,-40.237 -19.955,0.611 z"
       fill="#ffb9b9" />
    <path
       id="Path_2338-2919"
       data-name="Path 2338"
       d="m 503.82661,326.45206 3.4,-6.807 28.931,14.466 -0.851,5.956 5.531,7.233 c 0,0 9.36,5.106 7.658,22.124 l -1.7,16.167 -2.127,20.848 14.891,51.481 7.658,68.074 5.531,54.884 -26.8,-1.276 -24.677,-89.347 -43.4,96.154 -29.78,-7.662 40.844,-95.3 5.106,-39.993 c 0,0 -3.4,-21.273 12.764,-35.739 l -2.554,-7.658 v -9.437 l -8.509,-45.022 z"
       fill="#090814" />
    <rect
       id="Rectangle_631"
       data-name="Rectangle 631"
       width="1"
       height="68.960999"
       transform="rotate(-15.751)"
       opacity="0.2"
       x="368.11316"
       y="544.38751" />
    <rect
       id="Rectangle_632"
       data-name="Rectangle 632"
       width="41.695"
       height="4.2550001"
       transform="scale(-1)"
       fill="#d6d6e3"
       x="-546.37262"
       y="-410.69305" />
    <ellipse
       id="Ellipse_424"
       data-name="Ellipse 424"
       cx="546.3736"
       cy="408.99207"
       rx="1.702"
       ry="4.2550001"
       fill="#d6d6e3" />
    <circle
       id="Ellipse_425"
       data-name="Ellipse 425"
       cx="-6.2777042"
       cy="604.67957"
       r="22.681999"
       transform="rotate(-61.337)"
       fill="#ffb9b9" />
    <circle
       id="Ellipse_426"
       data-name="Ellipse 426"
       cx="492.86261"
       cy="267.38205"
       r="20.066"
       fill="#090814" />
    <path
       id="Path_2339-2920"
       data-name="Path 2339"
       d="m 467.39761,265.23306 a 20.067,20.067 0 1 0 39.143,8.229 20.067,20.067 0 0 1 -39.143,-8.229 z"
       fill="#090814" />
    <path
       id="Path_2340-2921"
       data-name="Path 2340"
       d="m 546.66961,289.24706 a 23.724,23.724 0 1 1 -14.157,-19.1 c 3.963,-3.2 8.875,-2.205 12.87,1.167 4.517,3.814 5.857,6.433 9.36,12.7 -3.445,0.49 -4.628,4.75 -8.073,5.233 z"
       fill="#090814" />
    <path
       id="Path_2341-2922"
       data-name="Path 2341"
       d="m 463.29561,357.45906 c 0.254,6.722 0.757,19.953 0.757,20.628 0,0.712 10.031,21.48 14.364,30.419 v 0 c 0.308,0.63 0.585,1.2 0.83,1.7 a 4.028,4.028 0 0 0 3.7,2.275 l 18.937,-0.34 a 4.036,4.036 0 0 0 3.968,-3.925 l 2.112,-83.315 a 2.06,2.06 0 0 0 -2.058,-2.112 h -24.42 a 5.491,5.491 0 0 0 -4.941,3.1 l -11.721,24.25 a 15.5,15.5 0 0 0 -1.528,7.32 z"
       fill="#016391" />
    <path
       id="Path_2342-2923"
       data-name="Path 2342"
       d="m 506.18261,402.49906 a 54.233,54.233 0 0 0 12.939,-10.936 60.009,60.009 0 0 0 14.955,-34.888 c 0.963,-11.072 -1.234,-19.3 -6.53,-24.463 -6.732,-6.559 -15.894,-5.606 -16.281,-5.562 l -0.41,0.046 -6.204,5.251 1.757,2.076 5.555,-4.7 c 1.7,-0.085 8.641,-0.1 13.712,4.856 4.667,4.565 6.584,12.054 5.7,22.258 a 57.309,57.309 0 0 1 -14.208,33.237 52.654,52.654 0 0 1 -12.29,10.44 z"
       fill="#016391" />
    <rect
       id="Rectangle_633"
       data-name="Rectangle 633"
       width="0.90636277"
       height="33.793526"
       transform="rotate(-78.409263)"
       fill="#090814"
       x="-269.56857"
       y="535.8443"
       style="stroke-width:1.0004" />
    <rect
       id="Rectangle_634"
       data-name="Rectangle 634"
       width="52.686619"
       height="0.90685576"
       transform="rotate(-87.64984)"
       fill="#090814"
       x="-354.98349"
       y="505.58249"
       style="stroke-width:0.999841" />
    <path
       id="Path_2343-2924"
       data-name="Path 2343"
       d="m 463.29561,357.45906 c 0.254,6.722 0.757,19.953 0.757,20.628 0,0.712 10.031,21.48 14.364,30.419 l -8.077,-46.9 a 10.338,10.338 0 0 0 -6.713,-7.973 15.215,15.215 0 0 0 -0.331,3.826 z"
       fill="#090814" />
    <path
       id="Path_2344-2925"
       data-name="Path 2344"
       d="m 512.92161,455.74706 a 7.979,7.979 0 0 1 2.6,-11.956 l -1.642,-18.16 10.792,-3.689 1.958,25.677 a 8.022,8.022 0 0 1 -13.7,8.128 z"
       fill="#ffb7b7" />
    <path
       id="Path_2345-2926"
       data-name="Path 2345"
       d="m 505.85761,346.14706 a 12.45,12.45 0 0 1 8.422,-12.742 11.309,11.309 0 0 1 7.113,0.006 12.448,12.448 0 0 1 8.433,11.849 l 0.809,92.222 -19.123,0.693 z"
       fill="#f2f2f2" />
    <path
       id="Path_633-2927"
       data-name="Path 633"
       d="m 564.1898,601.41703 c 0,0 -10.26866,0.13054 -12.11521,-0.32965 -1.84654,-0.4602 -4.34364,15.64216 1.15283,16.43606 5.49647,0.7939 27.88041,0.99402 27.88041,0.99402 0,0 17.40588,-1.81057 15.87287,-6.42274 -1.53301,-4.61216 -25.65469,-12.35764 -25.65469,-12.35764 0,0 -3.41878,-5.66033 -7.13621,1.67995 z"
       fill="#090814"
       style="stroke-width:1.00045" />
    <path
       id="Path_2346-2928"
       data-name="Path 2346"
       d="m 460.29579,597.09385 c 0,0 -9.90024,-2.70664 -11.54714,-3.65798 -1.6469,-0.95134 -8.4866,13.82815 -3.42555,16.10668 5.06104,2.27853 26.50821,8.64414 26.50821,8.64414 0,0 17.2197,3.06119 17.01908,-1.79212 -0.20062,-4.85332 -21.23612,-18.94638 -21.23612,-18.94638 0,0 -1.72305,-6.38028 -7.31848,-0.35434 z"
       fill="#090814"
       style="stroke-width:0.999874" />
  </g>
</svg>
