<?xml version="1.0" encoding="UTF-8" standalone="no"?>
<svg
   width="255.89363"
   height="468.03702"
   viewBox="0 0 255.89363 468.03702"
   role="img"
   artist="Katerina Limpitsouni"
   source="https://undraw.co/"
   version="1.1"
   id="svg62"
   sodipodi:docname="house.svg"
   inkscape:version="1.4 (e7c3feb1, 2024-10-09)"
   xmlns:inkscape="http://www.inkscape.org/namespaces/inkscape"
   xmlns:sodipodi="http://sodipodi.sourceforge.net/DTD/sodipodi-0.dtd"
   xmlns="http://www.w3.org/2000/svg"
   xmlns:svg="http://www.w3.org/2000/svg">
  <defs
     id="defs62" />
  <sodipodi:namedview
     id="namedview62"
     pagecolor="#ffffff"
     bordercolor="#000000"
     borderopacity="0.25"
     inkscape:showpageshadow="2"
     inkscape:pageopacity="0.0"
     inkscape:pagecheckerboard="0"
     inkscape:deskcolor="#d1d1d1"
     inkscape:zoom="0.93989589"
     inkscape:cx="-102.67095"
     inkscape:cy="214.38545"
     inkscape:window-width="1720"
     inkscape:window-height="692"
     inkscape:window-x="0"
     inkscape:window-y="28"
     inkscape:window-maximized="0"
     inkscape:current-layer="svg62" />
  <circle
     cx="167.82841"
     cy="63"
     r="63"
     fill="#ff6884"
     id="circle1" />
  <path
     d="M 74.886789,456.49894 3.8335693,451.96964 0.00202933,132.46866 c -0.0928,-7.75488 2.99901997,-15.34863 8.48339997,-20.83301 L 84.606039,35.515043 c 10.65576,-10.65479 27.427251,-11.4248 39.013181,-1.78662 l 82.60742,68.718257 c 6.73926,5.60596 10.54541,13.84863 10.44189,22.61426 l -2.83838,240.28076 35.90381,49.86621 0.0762,0.10547 6.0835,52.72363 -181.006841,-11.53809 z"
     fill="#e6e6e6"
     id="path2" />
  <path
     d="M 86.828199,109.90763 V 95.092203 c 0,-3.91064 3.18164,-7.09229 7.09229,-7.09229 h 20.815921 c 3.91064,0 7.0918,3.18164 7.0918,7.09229 v 14.815427 c 0,3.91064 -3.18115,7.09229 -7.0918,7.09229 H 93.920489 c -3.91064,0 -7.09229,-3.18164 -7.09229,-7.09229 z"
     fill="#016391"
     id="path3" />
  <path
     d="M 42.828199,224.90763 V 170.0922 c 0,-3.91064 3.18164,-7.09229 7.09229,-7.09229 h 30.81592 c 3.91064,0 7.0918,3.18164 7.0918,7.09229 v 54.81543 c 0,3.91064 -3.18115,7.09229 -7.0918,7.09229 h -30.81592 c -3.91064,0 -7.09229,-3.18164 -7.09229,-7.09229 z"
     fill="#3f3d56"
     id="path4" />
  <path
     d="m 112.48493,353.21866 c -3.72461,-0.13184 -6.72803,-3.1543 -6.83838,-6.87988 l -1.55811,-52.98145 c -0.0664,-2.26172 0.9126,-4.36328 2.68604,-5.76855 1.77344,-1.4043 4.04443,-1.87305 6.23096,-1.29297 l 1.55811,0.41602 c 3.09961,0.82715 5.26465,3.64453 5.26465,6.85254 v 52.56641 c 0,1.94141 -0.76953,3.75391 -2.1665,5.10254 -1.33496,1.28906 -3.07275,1.98926 -4.91846,1.98926 -0.0859,0 -0.17188,-9.8e-4 -0.2583,-0.004 z"
     fill="#3f3d56"
     id="path5" />
  <path
     d="m 17.994699,351.23331 c -1.39697,-1.34863 -2.1665,-3.16113 -2.1665,-5.10254 v -52.56641 c 0,-3.20801 2.16504,-6.02539 5.26514,-6.85254 l 1.55811,-0.41602 c 2.18799,-0.58008 4.45752,-0.11133 6.23047,1.29297 1.77344,1.4043 2.75244,3.50684 2.68652,5.76855 l -1.55859,52.98145 c -0.10986,3.72559 -3.11328,6.74805 -6.83838,6.87988 -0.0864,0.003 -0.17236,0.004 -0.2583,0.004 -1.84521,0 -3.5835,-0.70117 -4.91846,-1.98926 z"
     fill="#3f3d56"
     id="path6" />
  <path
     d="m 47.828199,345.90812 v -54.97461 c 0,-3.88086 3.03955,-6.99512 6.91943,-7.09082 l 28.0083,-0.68262 c 3.88232,-0.0537 7.14893,2.99316 7.2627,6.88477 l 1.61328,55.65723 c 0.0557,1.93262 -0.65527,3.76074 -2.00293,5.14746 -1.34668,1.38672 -3.15332,2.15039 -5.08643,2.15039 h -29.62207 c -3.91064,0 -7.09229,-3.18164 -7.09229,-7.0918 z"
     fill="#3f3d56"
     id="path7" />
  <path
     d="m 213.37595,383.47341 21.95246,39.02659 2.52002,43.89001 17.47998,1.10999 -6,-52 -36,-50 v 0 c -3.10706,5.59272 -3.08906,12.39721 0.0476,17.97341 z"
     fill="#cccccc"
     id="path8" />
  <rect
     x="159.66486"
     y="457.02774"
     width="71.25528"
     height="1.00009"
     transform="rotate(-0.78329)"
     fill="#3f3d56"
     id="rect8" />
  <rect
     x="161.78398"
     y="446.80789"
     width="67.556778"
     height="1.00003"
     transform="rotate(-0.44761)"
     fill="#3f3d56"
     id="rect9" />
  <rect
     x="156.12897"
     y="440.37885"
     width="64.631813"
     height="1.00019"
     transform="rotate(-1.11892)"
     fill="#3f3d56"
     id="rect10" />
  <rect
     x="150.92665"
     y="434.32315"
     width="62.08987"
     height="1.00055"
     transform="rotate(-1.9017)"
     fill="#3f3d56"
     id="rect11" />
  <rect
     x="149.79182"
     y="426.65125"
     width="59.658989"
     height="1.00062"
     transform="rotate(-2.01348)"
     fill="#3f3d56"
     id="rect12" />
  <rect
     x="162.257"
     y="412.00034"
     width="58.071289"
     height="1"
     fill="#3f3d56"
     id="rect13" />
  <rect
     x="156.1217"
     y="407.50189"
     width="56.44001"
     height="1.00007"
     transform="rotate(-0.6714)"
     fill="#3f3d56"
     id="rect14" />
  <rect
     x="146.27014"
     y="404.88162"
     width="54.715912"
     height="1.00055"
     transform="rotate(-1.9017)"
     fill="#3f3d56"
     id="rect15" />
  <rect
     x="151.40546"
     y="394.6969"
     width="54.009258"
     height="1.00015"
     transform="rotate(-1.00705)"
     fill="#3f3d56"
     id="rect16" />
  <rect
     x="144.4819"
     y="390.41879"
     width="51.73135"
     height="1.00049"
     transform="rotate(-1.78991)"
     fill="#3f3d56"
     id="rect17" />
  <rect
     x="151.36989"
     y="379.99686"
     width="51.252441"
     height="1.0000499"
     transform="rotate(-0.55951)"
     fill="#3f3d56"
     id="rect18" />
  <path
     d="m 151.3282,357.40812 v -67.81543 c 0,-3.91113 3.18164,-7.09277 7.09229,-7.09277 h 32.81592 c 3.91064,0 7.0918,3.18164 7.0918,7.09277 v 67.81543 c 0,3.91016 -3.18115,7.0918 -7.0918,7.0918 h -32.81592 c -3.91064,0 -7.09229,-3.18164 -7.09229,-7.0918 z"
     fill="#016391"
     id="path18" />
  <path
     d="m 74.886789,456.49894 -58.09033,-3.7002 -0.46826,-0.0303 v -44.957 c 0,-5.68555 4.62549,-10.31152 10.31104,-10.31152 h 57.37793 c 5.68555,0 10.31104,4.62598 10.31104,10.31152 v 48.68848 h -0.5 l -18.94141,-9.8e-4 z"
     fill="#cccccc"
     id="path19" />
  <path
     d="M 155.3282,234.40812 V 182.5922 c 0,-3.91064 3.18164,-7.09229 7.09229,-7.09229 h 10.81592 c 3.91064,0 7.0918,3.18164 7.0918,7.09229 v 51.81592 c 0,3.91016 -3.18115,7.0918 -7.0918,7.0918 h -10.81592 c -3.91064,0 -7.09229,-3.18164 -7.09229,-7.0918 z"
     fill="#3f3d56"
     id="path20" />
  <path
     d="m 166.32841,461.5 -3,-44 -9,-42 -2.5,-11.5 h -1e-5 c -5.13733,-3.49339 -12.05536,0.39254 -11.74512,6.59734 l 0.24513,4.90266 9,42 3,44"
     fill="#cccccc"
     id="path21" />
</svg>
