<?xml version="1.0" encoding="UTF-8" standalone="no"?>
<svg
   width="267.25327"
   height="586.75494"
   viewBox="0 0 267.25327 586.75492"
   role="img"
   artist="Katerina Limpitsouni"
   source="https://undraw.co/"
   version="1.1"
   id="svg27"
   sodipodi:docname="person1.svg"
   inkscape:version="1.4 (e7c3feb1, 2024-10-09)"
   xmlns:inkscape="http://www.inkscape.org/namespaces/inkscape"
   xmlns:sodipodi="http://sodipodi.sourceforge.net/DTD/sodipodi-0.dtd"
   xmlns="http://www.w3.org/2000/svg"
   xmlns:svg="http://www.w3.org/2000/svg">
  <defs
     id="defs27" />
  <sodipodi:namedview
     id="namedview27"
     pagecolor="#ffffff"
     bordercolor="#000000"
     borderopacity="0.25"
     inkscape:showpageshadow="2"
     inkscape:pageopacity="0.0"
     inkscape:pagecheckerboard="0"
     inkscape:deskcolor="#d1d1d1"
     inkscape:zoom="0.5484027"
     inkscape:cx="-248.90468"
     inkscape:cy="285.37423"
     inkscape:window-width="1728"
     inkscape:window-height="1052"
     inkscape:window-x="0"
     inkscape:window-y="65"
     inkscape:window-maximized="0"
     inkscape:current-layer="svg27" />
  <path
     d="m 67.16641,37.567018 c -7.51576,-27.40163 53.10245,-50.89907 69.02069,-28.8324905 2.21348,-3.1372 10.39357,-5.04278 14.14681,-4.08041 3.75324,0.96237 6.90971,3.36827 9.98934,5.6972305 4.23443,3.25279 8.62274,6.62107 11.22108,11.29814 2.61772,4.65781 3.02183,11.0095 -0.50033,15.05138 -2.79088,3.21426 -11.02877,5.293 -15.22466,6.13988 -2.92551,0.59667 -5.38921,1.07785 -7.50637,1.42428 a 14.35164,14.35164 0 0 1 -2.50224,-9.48889 11.64833,11.64833 0 0 0 -5.08119,8.5458 c -0.0578,0.71214 23.65486,87.960052 23.65486,87.960052 a 51.72043,51.72043 0 0 1 -8.95,4.02262 112.54468,112.54468 0 0 1 -13.95427,-30.41067 97.45318,97.45318 0 0 0 0.26949,21.65318 119.1445,119.1445 0 0 0 2.0402,11.991 c -28.178,6.08221 -70.56044,4.08053 -88.99936,-21.7878 q -0.005,-0.16053 -0.009,-0.3213 a 4.40184,4.40184 0 0 0 -8.50333,-1.53505 c -0.44736,1.1413 -0.85908,2.12916 -1.2265,2.91492 C 39.68164,98.600048 46.62987,76.369468 67.1667,37.567018 Z"
     fill="#2f2e41"
     id="path2" />
  <path
     d="m 19.21624,496.96418 v 0.89737 a 3.809,3.809 0 0 1 0,-0.89737 z"
     fill="#2f2e41"
     id="path3" />
  <path
     d="m 46.81101,341.88948 a 15.32366,15.32366 0 0 1 2.183,-0.424 q -1.26905,0.20681 -2.183,0.424 z"
     fill="#2f2e41"
     id="path4" />
  <path
     d="m 46.17241,342.05222 c 0.19365,-0.0543 0.40921,-0.1086 0.63857,-0.16274 -0.21363,0.0556 -0.41908,0.0965 -0.63857,0.16274 z"
     fill="#2f2e41"
     id="path5" />
  <path
     d="M 250.04391,586.75494 H 146.75778 a 8.21329,8.21329 0 0 1 -2.2114,-10.1149 c 2.82162,-6.47111 -2.70755,-12.38425 -2.70755,-12.38425 a 17.5668,17.5668 0 0 1 -3.53986,-16.19126 c 2.73658,-9.55783 -7.98759,-36.535 -7.98759,-36.535 0,0 -5.78127,34.83426 -12.86549,75.22543 H 19.21624 a 18.25939,18.25939 0 0 1 0,-18.48907 c 5.72448,-9.70643 0,-11.56794 0,-11.56794 0,0 -5.72448,-10.86155 0,-18.748 5.72448,-7.88645 0,-40.08836 0,-40.08836 0.21572,1.42376 1.84656,-1.16486 4.35751,-6.59238 3.82253,-8.25772 9.66421,-23.10776 15.56624,-40.348 4.21947,-12.30455 8.47344,-25.84306 12.02848,-39.07958 h 0.009 q 1.39788,-5.216 2.649,-10.33723 c 1.63084,-6.69591 3.0287,-13.202 4.09,-19.31114 2.30386,-13.15884 3.06319,-24.46254 1.29431,-31.8142 -1.4669,-6.1178 -4.67677,-9.49162 -10.21641,-8.91351 2.96829,-0.49184 7.31716,-0.95778 12.67563,-1.39785 0.96642,-0.0777 1.96733,-0.15531 3.00279,-0.24163 39.96837,-3.02006 125.72089,-4.7544 125.72089,-4.7544 l 26.26596,47.03515 33.26383,59.58155 c 0,0 -0.906,79.92815 0.1208,145.06657 z"
     fill="#2f2e41"
     id="path6" />
  <path
     d="m 139.80015,131.77653 -60.51384,-12.83644 -12.01528,24.1852 -40.46209,23.42543 c 0,0 26.08156,106.64135 25.93277,121.63984 -0.37777,38.079 -61.30588,123.44042 -15.28485,116.87355 46.02103,-6.56687 55.36918,-34.07334 70.14317,-29.724 13.3243,3.92253 29.59359,21.37211 40.48552,8.89216 10.89193,-12.47995 14.72832,1.93129 21.61565,2.42934 3.27307,0.23669 1.30185,-15.75881 9.53707,0.49707 8.23522,16.25588 51.90445,-5.62623 37.10363,-20.42705 -24.65,-24.65 -29.65972,-206.36132 -29.65972,-206.36132 l -27.4406,-8.44326 z"
     fill="#e6e6e6"
     id="path7" />
  <path
     d="m 25.66463,519.05239 a 14.526,14.526 0 0 0 -1.49594,-20.20536 13.9357,13.9357 0 0 0 -1.866,-1.351 L 32.42062,447.83963 9.0303,433.84042 2.52437,503.36206 a 14.48576,14.48576 0 0 0 3.33874,17.36689 13.86282,13.86282 0 0 0 19.556,-1.38555 q 0.12472,-0.14384 0.24552,-0.29101 z"
     fill="#a0616a"
     id="path8" />
  <path
     d="m 98.29011,257.30931 c -0.14673,-1.59635 -2.1831,-2.32114 -5.00472,-3.3221 a 30.95043,30.95043 0 0 1 -7.99881,-3.788 c -6.24726,-4.51282 -3.788,-9.23272 -0.38831,-15.75606 0.66443,-1.26845 1.35472,-2.58862 2.00188,-3.96061 1.92419,-4.06416 -1.139,-20.82982 -9.1206,-49.83967 -2.45922,-8.93073 -2.45058,-15.23835 -4.15042,-19.42332 -1.69126,-4.18492 -5.08235,-6.24721 -14.32376,-6.67864 a 42.251,42.251 0 0 0 -30.41634,10.81184 c -0.2243,0.19845 -0.45729,0.41417 -0.68165,0.62125 q -0.6342,0.59541 -1.24254,1.21668 a 42.21984,42.21984 0 0 0 -12.27006,29.02707 l -0.0432,1.85521 -1.90692,88.63448 -5.35848,77.77956 -7.3862,107.14316 5.47065,0.26754 21.83076,1.08712 2.649,0.12945 6.28171,-26.35218 7.55879,-31.71065 2.77848,-11.64881 8.62012,-36.13721 4.021,-16.88647 2.45922,-10.31136 1.00088,-4.21077 4.88385,-20.46737 c 0.11217,-0.43144 11.34682,-44.75732 24.29858,-52.16944 4.83208,-2.76119 6.57511,-4.36619 6.43707,-5.9107 z"
     fill="#e6e6e6"
     id="path9" />
  <path
     d="m 243.60827,518.52442 a 14.526,14.526 0 0 1 -0.68275,-20.24915 13.93416,13.93416 0 0 1 1.71013,-1.54361 l -15.39245,-48.28254 21.75151,-16.43034 13.9349,68.4208 a 14.48576,14.48576 0 0 1 -1.4543,17.625 13.86281,13.86281 0 0 1 -19.59164,0.72275 q -0.1395,-0.12951 -0.2754,-0.26291 z"
     fill="#a0616a"
     id="path10" />
  <path
     d="m 254.24891,413.75645 c 0,0 -16.9645,-59.68773 -11.79084,-66.14935 5.17366,-6.46162 -10.10621,-7.7235 -3.52169,-19.75745 6.58452,-12.03395 -2.50376,-14.04665 -2.50376,-14.04665 l -4.93184,-27.66868 -8.81682,-67.96132 -0.26734,-2.02117 -2.56448,-19.77218 a 42.34076,42.34076 0 0 0 -16.696,-28.61684 c -0.23307,-0.17843 -0.47114,-0.34983 -0.70925,-0.52125 q -1.62813,-1.17213 -3.32715,-2.172 a 42.26284,42.26284 0 0 0 -28.10644,-5.33868 c -18.28571,2.84786 -12.59457,9.6669 -15.56046,27.935 -4.819,29.7033 -6.0699,46.69679 -3.71994,50.53631 0.79163,1.2929 1.62357,2.5298 2.41661,3.71735 4.08278,6.129 7.03442,10.55052 1.30465,15.7181 a 31.25081,31.25081 0 0 1 -7.54427,4.6162 c -2.69312,1.304 -4.64259,2.23962 -4.61646,3.84262 0.0303,1.55289 1.934,2.95523 7.0314,5.179 6.17691,2.70319 12.81133,12.92324 18.24528,23.36341 a 257.87976,257.87976 0 0 1 11.51823,25.89924 l 46.70479,131.35551 7.61783,21.422 2.62767,-0.41552 21.57998,-3.42133 5.4118,-0.85662 z"
     fill="#e6e6e6"
     id="path11" />
  <circle
     cx="114.2694"
     cy="68.662796"
     r="49.370209"
     fill="#a0616a"
     id="circle11" />
  <path
     d="m 40.22021,41.416478 c -7.51577,-27.40164 53.10245,-50.8990805 69.02069,-28.8325 2.21348,-3.1372005 10.39357,-5.0427705 14.14681,-4.0804105 3.75324,0.96236 6.90971,3.3682705 9.98934,5.6972305 4.23443,3.2528 8.62274,6.62107 11.22108,11.29814 2.61772,4.65781 3.02183,11.0095 -0.50033,15.05138 -2.79088,3.21427 -11.02877,5.293 -15.22466,6.13989 -2.92551,0.59666 -5.38921,1.07784 -7.50637,1.42428 a 14.35166,14.35166 0 0 1 -2.50224,-9.48889 11.64829,11.64829 0 0 0 -5.08119,8.54579 c -0.0578,0.71214 23.65486,87.960062 23.65486,87.960062 a 51.72045,51.72045 0 0 1 -8.95,4.02261 112.54462,112.54462 0 0 1 -13.95427,-30.41066 97.45318,97.45318 0 0 0 0.26949,21.65318 119.14215,119.14215 0 0 0 2.0402,11.991 c -28.178,6.0822 -70.56044,4.08053 -88.99936,-21.78781 q -0.005,-0.16051 -0.009,-0.32129 a 4.40184,4.40184 0 0 0 -8.50333,-1.535 c -0.44736,1.14129 -0.85908,2.12916 -1.2265,2.91492 C 12.73545,102.4495 19.6837,80.218918 40.2205,41.416478 Z"
     fill="#2f2e41"
     id="path12" />
  <path
     d="M 58.68875,15.605818"
     fill="#2f2e41"
     id="path13" />
</svg>
