<?xml version="1.0" encoding="UTF-8" standalone="no"?>
<svg
   width="295.37216"
   height="619.79114"
   viewBox="0 0 295.37216 619.79111"
   role="img"
   artist="Katerina Limpitsouni"
   source="https://undraw.co/"
   version="1.1"
   id="svg27"
   sodipodi:docname="person2.svg"
   inkscape:version="1.4 (e7c3feb1, 2024-10-09)"
   xmlns:inkscape="http://www.inkscape.org/namespaces/inkscape"
   xmlns:sodipodi="http://sodipodi.sourceforge.net/DTD/sodipodi-0.dtd"
   xmlns="http://www.w3.org/2000/svg"
   xmlns:svg="http://www.w3.org/2000/svg">
  <defs
     id="defs27" />
  <sodipodi:namedview
     id="namedview27"
     pagecolor="#ffffff"
     bordercolor="#000000"
     borderopacity="0.25"
     inkscape:showpageshadow="2"
     inkscape:pageopacity="0.0"
     inkscape:pagecheckerboard="0"
     inkscape:deskcolor="#d1d1d1"
     inkscape:zoom="0.78103766"
     inkscape:cx="464.12615"
     inkscape:cy="366.8197"
     inkscape:window-width="1728"
     inkscape:window-height="1052"
     inkscape:window-x="0"
     inkscape:window-y="65"
     inkscape:window-maximized="0"
     inkscape:current-layer="svg27" />
  <path
     d="m 177.52495,41.771721 c -0.9174,2.13788 -29.20421,1.90879 -30.49973,3.81247 -9.98865,14.6971 26.0185,77.229549 16.02986,91.945729 l -1.39152,1.65842 a 65.75661,65.75661 0 0 0 9.35956,-5.28031 c 0.2669,-6.02364 0.5338,-12.06649 0.81966,-18.09013 a 49.72123,49.72123 0 0 1 7.16746,12.60017 c 2.32566,-1.63933 4.23341,-4.67832 14.20146,-10.65578 a 62.515,62.515 0 0 1 13.81367,-11.37108 z"
     fill="#2f2e41"
     id="path15" />
  <path
     d="m 198.06559,162.22255 a 23.4277,23.4277 0 0 0 -35.49309,13.858 L 119.58664,288.08409 45.698873,246.1361 a 22.87524,22.87524 0 1 0 -14.27186,22.7523 c 15.56013,16.60716 83.018917,84.69637 110.946387,58.09227 23.47441,-22.362 57.3508,-109.02911 65.50546,-138.957 a 23.43014,23.43014 0 0 0 -9.81327,-25.80112 z"
     fill="#ffb6b6"
     id="path16" />
  <polygon
     points="230.098,420.167 239.214,366.781 117.341,349.883 130.906,411.195 "
     fill="#ffb6b6"
     id="polygon16"
     transform="translate(0.00887228,-18.208869)" />
  <path
     d="m 268.86735,488.90101 c -0.0453,0.87892 -0.0997,1.74882 -0.16309,2.62779 -0.95143,12.70387 -2.03879,27.356 -3.21674,43.41254 -1.85755,25.4803 -3.93262,54.49451 -6.02577,84.84978 H 51.405873 l 40.35026,-121.28154 c 0,0 16.292517,-8.97031 7.99781,-24.03914 -8.29471,-15.06883 8.026267,-3.06065 8.178097,-24.5811 0.15183,-21.52045 14.777,-44.41548 14.777,-44.41548 l 2.40126,-32.58436 1.36826,0.0272 108.27315,1.80318 1.97535,0.0362 3.32547,27.9722 a 123.668,123.668 0 0 1 28.81482,86.17269 z"
     fill="#2f2e41"
     id="path17" />
  <path
     d="m 179.25893,132.5089 49.37257,-2.54338 22.93226,36.23574 c 0,0 43.14762,7.21373 40.15679,58.05785 -2.99083,50.84412 -52.49777,95.46007 -52.49777,95.46007 l 2.11627,-7.25542 -3.67543,10.502 0.47132,5.89689 5.014,6.245 0.51621,6.4585 -4.44235,10.21851 v 0 a 5.83891,5.83891 0 0 1 -5.53624,8.90024 l -71.33958,-7.14938 c -1.62421,-4.468 -2.92741,-9.81387 -9.43789,-0.91444 l -6.72031,-0.65106 -27.93639,-2.7066 -1.6443,-5.98994 a 23.20469,23.20469 0 0 1 3.77511,-20.01465 v 0 a 30.60736,30.60736 0 0 1 1.77136,-22.98081 l 0.13362,-0.2677 2.96669,-2.47279 c 0,0 -32.456727,-48.76167 4.80261,-85.48825 l 14.95415,-25.42206 16.73241,-20.41434 z"
     fill="#016391"
     id="path18" />
  <circle
     cx="191.54686"
     cy="64.300041"
     r="46.818851"
     fill="#ffb6b6"
     id="circle18" />
  <path
     d="m 227.10609,131.74595 a 22.5482,22.5482 0 0 1 -7.54872,-12.39051 48.44628,48.44628 0 0 0 0.66725,17.68978 c -2.53532,1.90623 -4.99432,3.71718 -7.32,5.35651 a 49.721,49.721 0 0 0 -7.16745,-12.60017 c -0.28587,6.02364 -0.55277,12.06649 -0.81967,18.09013 a 65.7548,65.7548 0 0 1 -9.35955,5.2803 l 1.39151,-1.65841 c 9.98864,-14.71618 -15.85987,-41.80368 -5.87123,-56.500779 2.80222,-4.11753 -9.85519,-36.65683 -19.50073,-38.12466 -8.57805,-1.29623 -8.21586,1.18185 -16.527,2.9928 a 41.5889,41.5889 0 0 0 -3.98408,-10.31279 34.07467,34.07467 0 0 1 -0.324,10.86555 c -2.95464,0.11437 -5.27927,-1.76829 -8.42552,-2.24934 -20.07269,-3.069 -18.033,-24.78091 -12.44776,-31.6625 5.60433,-6.8624 24.20918,-8.92116 32.78723,-11.15154 0.78151,-0.76242 2.55429,-0.28586 3.33591,-1.01024 16.43935,-15.04500012 38.42593,-17.5365701 58.21178,-10.8682901 21.10012,7.1112201 34.25569,20.8745801 41.00764,42.0924001 l 1.93652,16.97969 c 1.73734,5.45956 -0.44817,30.86221 -1.93652,36.39484 -5.78548,21.506179 -18.10683,10.770219 -38.10561,32.787229 z"
     fill="#2f2e41"
     id="path19" />
  <path
     d="M 295.37216,353.56156 293.529,210.00872 a 23.17268,23.17268 0 0 0 -23.16985,-22.80657 h -7e-5 a 23.17271,23.17271 0 0 0 -23.14009,24.40154 l 6.486,149.05754 0.12313,90.73906 a 20.22151,20.22151 0 1 0 24.8266,7.56106 z"
     fill="#ffb6b6"
     id="path20" />
</svg>
