<?xml version="1.0" encoding="UTF-8" standalone="no"?>
<svg
   width="570"
   height="228.91998"
   viewBox="0 0 570.00001 228.91997"
   role="img"
   artist="Katerina Limpitsouni"
   source="https://undraw.co/"
   version="1.1"
   id="svg80"
   sodipodi:docname="sky.svg"
   inkscape:version="1.4 (e7c3feb1, 2024-10-09)"
   xmlns:inkscape="http://www.inkscape.org/namespaces/inkscape"
   xmlns:sodipodi="http://sodipodi.sourceforge.net/DTD/sodipodi-0.dtd"
   xmlns="http://www.w3.org/2000/svg"
   xmlns:svg="http://www.w3.org/2000/svg">
  <defs
     id="defs80" />
  <sodipodi:namedview
     id="namedview80"
     pagecolor="#ffffff"
     bordercolor="#000000"
     borderopacity="0.25"
     inkscape:showpageshadow="2"
     inkscape:pageopacity="0.0"
     inkscape:pagecheckerboard="0"
     inkscape:deskcolor="#d1d1d1"
     inkscape:zoom="1.0765951"
     inkscape:cx="215.95863"
     inkscape:cy="254.97051"
     inkscape:window-width="1728"
     inkscape:window-height="1052"
     inkscape:window-x="0"
     inkscape:window-y="65"
     inkscape:window-maximized="0"
     inkscape:current-layer="svg80" />
  <path
     d="m 570,6.99998 v 221.92 c -0.67,-0.68 -1.33,-1.36 -2,-2.04 q -0.6141,-0.62445 -1.23262,-1.24728 A 242.55886,242.55886 0 0 0 355.9799,157.23725 c -27.51435,4.44236 -53.36864,11.24673 -68.8297,21.66614 C 170.87238,257.26453 38.94,182.58994 2,161.71 1.33,161.33994 0.66,160.96 0,160.57 V 7 A 7,7 0 0 1 7,0 h 556 a 7,7 0 0 1 7,6.99998 z"
     fill="#3f3d56"
     id="path1" />
  <circle
     cx="493.31"
     cy="48.819992"
     r="10"
     fill="#016391"
     id="circle19" />
  <circle
     cx="365.31"
     cy="90.819984"
     r="2"
     fill="#016391"
     id="circle20" />
  <circle
     cx="263.31"
     cy="129.81999"
     r="2"
     fill="#016391"
     id="circle21" />
  <circle
     cx="150.30998"
     cy="78.819984"
     r="2"
     fill="#ff6584"
     id="circle22" />
  <circle
     cx="198.30998"
     cy="28.81999"
     r="2"
     fill="#ffffff"
     id="circle23" />
  <circle
     cx="532.31"
     cy="17.81999"
     r="2"
     fill="#ffffff"
     id="circle24" />
  <circle
     cx="429.31"
     cy="51.819992"
     r="2"
     fill="#ffffff"
     id="circle25" />
  <circle
     cx="547.31"
     cy="84.819984"
     r="2"
     fill="#ffffff"
     id="circle26" />
  <circle
     cx="196.30998"
     cy="117.81998"
     r="2"
     fill="#ffffff"
     id="circle27" />
  <circle
     cx="43.310001"
     cy="111.81998"
     r="2"
     fill="#ff6584"
     id="circle28" />
  <polygon
     points="241.244,136.916 240.504,135.173 238.618,135.338 240.047,134.096 239.307,132.353 240.93,133.328 242.359,132.086 241.933,133.931 243.556,134.907 241.67,135.071 "
     fill="#ffffff"
     id="polygon28"
     transform="translate(-125.20686,-2e-5)" />
  <polygon
     points="482.244,30.916 481.504,29.173 479.618,29.338 481.047,28.096 480.307,26.353 481.93,27.328 483.359,26.086 482.933,27.931 484.556,28.907 482.67,29.071 "
     fill="#ffffff"
     id="polygon29"
     transform="translate(-125.20686,-2e-5)" />
  <polygon
     points="596.244,111.916 595.504,110.173 593.618,110.338 595.047,109.096 594.307,107.353 595.93,108.328 597.359,107.086 596.933,108.931 598.556,109.907 596.67,110.071 "
     fill="#ffffff"
     id="polygon30"
     transform="translate(-125.20686,-2e-5)" />
  <polygon
     points="384.244,88.916 383.504,87.173 381.618,87.338 383.047,86.096 382.307,84.353 383.93,85.328 385.359,84.086 384.933,85.931 386.556,86.907 384.67,87.071 "
     fill="#ffffff"
     id="polygon31"
     transform="translate(-125.20686,-2e-5)" />
  <polygon
     points="295.244,177.916 294.504,176.173 292.618,176.338 294.047,175.096 293.307,173.353 294.93,174.328 296.359,173.086 295.933,174.931 297.556,175.907 295.67,176.071 "
     fill="#ffffff"
     id="polygon32"
     transform="translate(-125.20686,-2e-5)" />
  <polygon
     points="672.244,175.916 671.504,174.173 669.618,174.338 671.047,173.096 670.307,171.353 671.93,172.328 673.359,171.086 672.933,172.931 674.556,173.907 672.67,174.071 "
     fill="#ffffff"
     id="polygon33"
     transform="translate(-125.20686,-2e-5)" />
  <polygon
     points="188.244,59.916 187.504,58.173 185.618,58.338 187.047,57.096 186.307,55.353 187.93,56.328 189.359,55.086 188.933,56.931 190.556,57.907 188.67,58.071 "
     fill="#ffffff"
     id="polygon34"
     transform="translate(-125.20686,-2e-5)" />
</svg>
