<?xml version="1.0" encoding="UTF-8" standalone="no"?>
<svg
   width="934.4873"
   height="735.01416"
   viewBox="0 0 934.48732 735.01413"
   role="img"
   artist="Katerina Limpitsouni"
   source="https://undraw.co/"
   version="1.1"
   id="svg33"
   sodipodi:docname="space.svg"
   inkscape:version="1.4 (e7c3feb1, 2024-10-09)"
   xmlns:inkscape="http://www.inkscape.org/namespaces/inkscape"
   xmlns:sodipodi="http://sodipodi.sourceforge.net/DTD/sodipodi-0.dtd"
   xmlns="http://www.w3.org/2000/svg"
   xmlns:svg="http://www.w3.org/2000/svg">
  <defs
     id="defs33" />
  <sodipodi:namedview
     id="namedview33"
     pagecolor="#ffffff"
     bordercolor="#000000"
     borderopacity="0.25"
     inkscape:showpageshadow="2"
     inkscape:pageopacity="0.0"
     inkscape:pagecheckerboard="0"
     inkscape:deskcolor="#d1d1d1"
     inkscape:zoom="0.64956995"
     inkscape:cx="522.65349"
     inkscape:cy="355.6199"
     inkscape:window-width="1728"
     inkscape:window-height="1051"
     inkscape:window-x="0"
     inkscape:window-y="38"
     inkscape:window-maximized="0"
     inkscape:current-layer="svg33" />
  <path
     d="M 912.77268,446.20591 C 1019.7528,564.51432 709.63552,735.01414 459.05318,735.01414 208.47084,735.01414 35.107015,602.9069 5.3336751,446.20591 -66.856455,66.258807 620.41103,-175.23347 459.05318,157.39762 223.85549,642.24589 828.52352,353.03547 912.77268,446.20591 Z"
     fill="#3f3d56"
     id="path3"
     sodipodi:nodetypes="sscss" />
  <path
     d="M 149.59394,168.8253 C 74.526525,165.52005 16.322605,149.32742 17.087255,131.96094 c 0.45844,-10.41178 21.70324,-18.7842 58.28677,-22.96955 a 1,1 0 1 1 0.22727,1.987 c -34.46168,3.943 -56.11733,12.01678 -56.516,21.07051 -0.69148,15.70451 59.11433,31.63093 130.596595,34.77832 71.48226,3.14739 132.4564,-7.461 133.14787,-23.16554 0.40032,-9.09178 -20.59681,-19.06558 -54.79775,-26.0284 a 1.00008,1.00008 0 1 1 0.3991,-1.95993 c 36.3011,7.39058 56.85694,17.624 56.39672,28.0763 -0.76462,17.3665 -60.16648,28.3809 -135.23389,25.07565 z"
     fill="#016391"
     id="path4" />
  <path
     d="M 82.922945,171.73379 A 76.98277,76.98277 0 0 0 215.95873,177.25557 1211.9755,1211.9755 0 0 1 82.922945,171.73379 Z"
     fill="#016391"
     id="path5" />
  <path
     d="M 224.26268,156.22054 A 76.997,76.997 0 1 0 76.513225,150.51492 572.23325,572.23325 0 0 0 224.26268,156.22054 Z"
     fill="#016391"
     id="path6" />
  <circle
     cx="348.90479"
     cy="114.89813"
     r="9.9997501"
     fill="#016391"
     id="circle8" />
  <circle
     cx="122.90481"
     cy="424.89813"
     r="6.0000701"
     fill="#e6e6e6"
     id="circle9" />
  <circle
     cx="542.90479"
     cy="630.89813"
     r="6.0000701"
     fill="#e6e6e6"
     id="circle10" />
  <circle
     cx="151.9048"
     cy="311.89813"
     r="3.0000701"
     fill="#e6e6e6"
     id="circle11" />
  <circle
     cx="399.90479"
     cy="535.89813"
     r="3.0000701"
     fill="#e6e6e6"
     id="circle12" />
  <circle
     cx="850.90479"
     cy="506.89813"
     r="3.0000701"
     fill="#e6e6e6"
     id="circle13" />
  <circle
     cx="709.90479"
     cy="595.89813"
     r="3.0000701"
     fill="#e6e6e6"
     id="circle14" />
  <circle
     cx="562.90479"
     cy="487.89813"
     r="3.0000701"
     fill="#e6e6e6"
     id="circle15" />
  <circle
     cx="372.90479"
     cy="191.89813"
     r="3.0000701"
     fill="#e6e6e6"
     id="circle16" />
  <circle
     cx="396.90479"
     cy="43.898129"
     r="3.0000701"
     fill="#e6e6e6"
     id="circle17" />
  <circle
     cx="382.90479"
     cy="666.89813"
     r="3.0000701"
     fill="#e6e6e6"
     id="circle18" />
  <circle
     cx="234.9048"
     cy="603.89813"
     r="3.0000701"
     fill="#e6e6e6"
     id="circle19" />
  <circle
     cx="703.90479"
     cy="495.89813"
     r="3.0000701"
     fill="#e6e6e6"
     id="circle20" />
  <circle
     cx="294.90485"
     cy="330.89819"
     r="29"
     fill="#016391"
     id="circle22" />
</svg>
