<?xml version="1.0" encoding="UTF-8" standalone="no"?>
<svg
   width="299.84879"
   height="591.99261"
   viewBox="0 0 299.84878 591.99261"
   role="img"
   artist="Katerina Limpitsouni"
   source="https://undraw.co/"
   version="1.1"
   id="svg24"
   sodipodi:docname="tree3.svg"
   inkscape:version="1.4 (e7c3feb1, 2024-10-09)"
   xmlns:inkscape="http://www.inkscape.org/namespaces/inkscape"
   xmlns:sodipodi="http://sodipodi.sourceforge.net/DTD/sodipodi-0.dtd"
   xmlns="http://www.w3.org/2000/svg"
   xmlns:svg="http://www.w3.org/2000/svg">
  <defs
     id="defs24" />
  <sodipodi:namedview
     id="namedview24"
     pagecolor="#ffffff"
     bordercolor="#000000"
     borderopacity="0.25"
     inkscape:showpageshadow="2"
     inkscape:pageopacity="0.0"
     inkscape:pagecheckerboard="0"
     inkscape:deskcolor="#d1d1d1"
     inkscape:zoom="0.67936864"
     inkscape:cx="131.73996"
     inkscape:cy="233.30485"
     inkscape:window-width="1720"
     inkscape:window-height="692"
     inkscape:window-x="0"
     inkscape:window-y="28"
     inkscape:window-maximized="0"
     inkscape:current-layer="svg24" />
  <g
     id="g24"
     transform="translate(-554.21683,-12.507368)">
    <rect
       x="704.5"
       y="275.5"
       width="38"
       height="329"
       fill="#2f2e43"
       stroke-width="0"
       id="rect1" />
    <path
       d="m 709.95494,315.8501 c 0,0 -54.45494,-7.38951 -35.95494,-74.36981 h 7.5 c 0,0 -9,34.01971 26,51.01971 z"
       fill="#2f2e43"
       stroke-width="0"
       id="path20" />
    <path
       d="m 739.5,338.5 c 0,0 35,-48 35,-67 h -9.66817 c 0,0 -9.47127,29 -30.90155,33.5 z"
       fill="#2f2e43"
       stroke-width="0"
       id="path21" />
    <path
       d="m 648.55758,267.76115 c -1.88105,14.64425 -17.07902,25.44128 -31.8252,24.70468 -14.74618,-0.73659 -27.89553,-11.27348 -34.30491,-24.57431 -6.40938,-13.30083 -6.79627,-28.87606 -3.83867,-43.34136 -14.83675,-19.96988 -23.43506,-44.50715 -24.30853,-69.37002 -0.47906,-13.63633 1.64142,-28.12783 10.26209,-38.70436 6.91025,-8.47805 17.74025,-13.62087 28.67775,-13.61816 10.9375,0.003 21.76495,5.15091 28.67099,13.63238 l -1.87434,-0.22424 c -1.69628,-13.68469 -3.39489,-27.50677 -2.01779,-41.22725 1.3771,-13.72048 6.11615,-27.52861 15.71654,-37.42712 9.88278,-10.18967 23.82911,-15.27587 37.53118,-18.98428 19.91186,-5.38905 41.04444,-8.53752 61.12158,-3.80123 20.07714,4.73629 38.92927,18.65177 44.94536,38.38323 15.83791,-0.57463 32.26505,1.18973 46.07832,8.95912 13.81327,7.76938 24.48078,22.5371 23.85478,38.37307 -0.62599,15.83597 -15.075,30.86946 -30.81686,29.03541 10.22069,6.54369 20.25733,13.78441 27.59861,23.44816 7.34128,9.66374 11.74254,22.14775 9.4097,34.05741 -2.33284,11.90967 -12.52366,22.55005 -24.64852,23.06973 l -2.65531,1.36037 c 14.59379,13.63762 14.0782,38.66701 2.15762,54.69397 -11.92058,16.02696 -32.43661,23.82266 -52.37934,24.94117 -19.94273,1.11851 -39.70214,-3.5792 -59.12383,-8.24411 -22.71134,-5.45506 -45.42268,-10.91012 -68.13402,-16.36518 z"
       fill="#016391"
       stroke-width="0"
       id="path22" />
  </g>
</svg>
