<?xml version="1.0" encoding="UTF-8" standalone="no"?>
<svg
   width="1047.5308"
   height="462.36533"
   viewBox="0 0 1047.5308 462.36533"
   role="img"
   artist="Katerina Limpitsouni"
   source="https://undraw.co/"
   version="1.1"
   id="svg27"
   sodipodi:docname="trees4.svg"
   inkscape:version="1.4 (e7c3feb1, 2024-10-09)"
   xmlns:inkscape="http://www.inkscape.org/namespaces/inkscape"
   xmlns:sodipodi="http://sodipodi.sourceforge.net/DTD/sodipodi-0.dtd"
   xmlns="http://www.w3.org/2000/svg"
   xmlns:svg="http://www.w3.org/2000/svg">
  <defs
     id="defs27" />
  <sodipodi:namedview
     id="namedview27"
     pagecolor="#ffffff"
     bordercolor="#000000"
     borderopacity="0.25"
     inkscape:showpageshadow="2"
     inkscape:pageopacity="0.0"
     inkscape:pagecheckerboard="0"
     inkscape:deskcolor="#d1d1d1"
     inkscape:zoom="0.67279858"
     inkscape:cx="517.98564"
     inkscape:cy="425.83324"
     inkscape:window-width="1728"
     inkscape:window-height="1052"
     inkscape:window-x="0"
     inkscape:window-y="65"
     inkscape:window-maximized="0"
     inkscape:current-layer="svg27" />
  <path
     d="m 281.36,222.7952 q 0,11.31 -0.94,21.59 c -8.1,89.43005 -67.58,121.35 -139.74,121.35 -1.81,0 -3.6,-0.02 -5.39,-0.07 -3.6,-0.07 -7.17,-0.24 -10.69,-0.49 -32.39,-2.29 -61.43,-11.82 -83.32,-31.11 a 105.41529,105.41529 0 0 1 -10.47,-10.65 C 11.53,300.8252 0,268.1252 0,222.7952 0,149.1252 68,61.525203 109.45,14.975203 A 41.68935,41.68935 0 0 1 139.61,0.96520347 h 0.4 a 41.61671,41.61671 0 0 1 31.9,14.00999953 705.97445,705.97445 0 0 1 52.67,66.54 c 30.11002,43.550017 56.78,95.149987 56.78,141.279997 z"
     fill="#016391"
     id="path4" />
  <polygon
     points="135.42,357.414 135.29,365.664 134.14,436.414 133.72,462.364 119.51,462.364 120.49,443.624 124.6,365.174 130.15,259.184 130.1,258.354 130.2,258.204 130.24,257.354 130.72,248.194 79.01,168.214 130.88,240.684 131,242.804 135.19,162.724 93.29,84.494 90.92,80.074 93.73,84.374 135.74,148.654 136.36,124.744 137.5,81.384 139.61,0.964 140.01,0.964 139.57,81.384 139.39,113.544 166.69,81.384 183.46,61.634 169.62,81.384 139.2,124.814 138.04,196.524 179.19,127.714 137.87,207.074 137.22,246.944 196.95,151.154 141.6,252.424 136.99,260.854 135.55,349.524 187.01,277.624 "
     fill="#3f3d56"
     id="polygon4"
     transform="translate(1e-5,0.00131347)" />
  <path
     d="m 510.74,174.2352 q 0,9.51 -0.83,18.11 c -6.78,71.37 -54.49,96.87 -112.34,96.87 -1.45,0 -2.9,-0.02 -4.33,-0.05 q -4.35,-0.09 -8.6,-0.41 a 143.90235,143.90235 0 0 1 -25.06,-3.86 c -20.44,-5.08 -38.16,-14.91 -51.26,-30.76 -14.98,-18.13 -23.91,-44.13 -23.91,-79.9 0,-26.56 10.99,-55.37 26.12,-82.449997 16.52,-29.57 37.98,-57.07 55.45,-77.33 A 41.525,41.525 0 0 1 396.61,0.00520347 h 0.4 A 41.5544,41.5544 0 0 1 429.17,14.455203 c 33.48004,38.80997 81.57,104.219997 81.57,159.779997 z"
     fill="#016391"
     id="path5" />
  <polygon
     points="393.35,282.524 393.24,289.164 392.77,318.114 392.46,337.674 391.98,366.944 380.55,366.944 381.89,341.334 383.66,307.504 384.64,288.754 389.1,203.504 389.07,202.844 389.14,202.724 389.56,194.664 347.97,130.324 389.69,188.624 389.79,190.334 393.16,125.914 388.03,116.324 388.02,116.324 357.55,59.434 393.6,114.604 396.61,0.004 397.01,0.004 396.53,86.354 431.98,44.604 396.39,95.424 395.99,119.764 395.45,153.104 411.17,126.814 428.55,97.754 412.96,127.694 395.31,161.594 394.79,193.664 430.3,136.714 442.84,116.614 431.49,137.374 394.61,204.854 393.45,276.174 434.84,218.344 "
     fill="#3f3d56"
     id="polygon5"
     transform="translate(1e-5,0.00131347)" />
  <path
     d="m 743.87001,294.45517 c 0,57.38 -34.11,77.41 -76.19,77.41 q -1.455,0 -2.91,-0.03 c -1.95,-0.05 -3.88,-0.13 -5.79,-0.28 a 90.39193,90.39193 0 0 1 -26.07,-5.47 c -24.59,-9.45 -41.41,-31.33 -41.41,-71.63 a 69.22149,69.22149 0 0 1 0.44,-7.7 c 1.41,-12.87 6.17,-26.3 12.67,-39.35 a 225.58715,225.58715 0 0 1 12.38,-21.58 c 5.76,-8.94 11.95,-17.41 17.96,-25.04 a 41.42854,41.42854 0 0 1 31.88,-15.85 c 0.13995,0 0.28,-0.01 0.43,0 a 41.42863,41.42863 0 0 1 33.16,15.85 c 20.65001,26.23 43.45,62.28005 43.45,93.67 z"
     fill="#016391"
     id="path6" />
  <path
     d="m 664.90999,363.08518 27.86,-38.93 -27.93005,43.21 -0.0699,4.47 -0.79,48.07 -0.07,4.29 h -7.69 l 0.76,-14.51 2,-38.13 3,-57.39 -0.03,-0.45 0.05,-0.08 0.29,-5.42 -28,-43.32 28.08,39.25 0.07,1.15 2.27,-43.37 -23.97,-44.76 24.27,37.16 1.82,-69.39 c 0.13995,0 0.28,-0.01 0.43,0 l -0.28,50.36 23.87,-28.11 -23.97,34.21 -0.63,38.84 22.29,-37.27 -22.38,42.98 -0.35,21.59 32.35,-51.87 -32.47,59.4 z"
     fill="#3f3d56"
     id="path7" />
  <path
     d="m 1038.8433,217.73056 c -15.9399,19.81 -37.71,43.34 -61.37996,58.8 -11.26,7.36 -22.96008,12.9 -34.66,15.34 -61.39,12.82 -90.44,-19.19995 -99.84,-64.21 -0.22,-1.05 -0.43005,-2.09 -0.61,-3.13 q -0.6,-3.15 -1.01,-6.26 c -5.61005,-41.23 10.32995,-77.5 67.41992,-89.42 17.67,-3.69 38.14014,-0.91 58.33008,4.92 21.30005,6.15 42.27996,15.69 59.34996,24.6 a 39.01913,39.01913 0 0 1 20.07,25.93 c 0.03,0.13 0.06,0.26 0.08,0.39 a 39.00357,39.00357 0 0 1 -7.7501,33.04 z"
     fill="#016391"
     id="path14" />
  <path
     d="m 976.42329,198.8005 -35.75,6.86005 37.01,12.81 7.84,2.71 -7.81995,-2.2 -43.16,-12.15 -23.17993,4.45 62.73,23.03 -70.82,-21.47 -51.54,9.89 47.88,21.11 -52.47,-20.23 -4.79,0.92 -21.44,4.11 v 0.01 l -22.71,4.35 -8.64,1.66 -3.43,0.66 -1.72,-8.24 3.49006,-0.54 7.17,-1.11 26.2,-4.05 20.07,-3.11 62.07995,-9.61 0.47,-0.12 0.1,0.04 5.86005,-0.91 40.09,-39.64 -35.72009,38.82 -1.21,0.33 46.9,-7.26 15.42,-12.92 27.12002,-22.73 -26.73012,26.68 -7.58984,7.58 8.13989,-1.48 70.23997,-12.75 c 0.03,0.13 0.06,0.26 0.08,0.39 l -57.66999,11.71 35.39999,19.25 -41.95999,-17.99 z"
     fill="#3f3d56"
     id="path15" />
</svg>
