<?xml version="1.0" encoding="UTF-8" standalone="no"?>
<svg
   width="294.29575"
   height="379.82492"
   viewBox="0 0 294.29576 379.82492"
   role="img"
   artist="Katerina Limpitsouni"
   source="https://undraw.co/"
   version="1.1"
   id="svg58"
   sodipodi:docname="weird-tree.svg"
   inkscape:version="1.4 (e7c3feb1, 2024-10-09)"
   xmlns:inkscape="http://www.inkscape.org/namespaces/inkscape"
   xmlns:sodipodi="http://sodipodi.sourceforge.net/DTD/sodipodi-0.dtd"
   xmlns="http://www.w3.org/2000/svg"
   xmlns:svg="http://www.w3.org/2000/svg">
  <defs
     id="defs58" />
  <sodipodi:namedview
     id="namedview58"
     pagecolor="#ffffff"
     bordercolor="#000000"
     borderopacity="0.25"
     inkscape:showpageshadow="2"
     inkscape:pageopacity="0.0"
     inkscape:pagecheckerboard="0"
     inkscape:deskcolor="#d1d1d1"
     inkscape:zoom="0.538101"
     inkscape:cx="567.73728"
     inkscape:cy="43.672099"
     inkscape:window-width="1720"
     inkscape:window-height="692"
     inkscape:window-x="0"
     inkscape:window-y="28"
     inkscape:window-maximized="0"
     inkscape:current-layer="svg58" />
  <g
     opacity="0.15"
     id="g35"
     transform="translate(-2.7268391e-6,-258.10469)">
    <path
       d="m 110.14328,312.44 a 48.13438,48.13438 0 0 0 8.58508,10.53176 66.25283,66.25283 0 0 1 -13.4137,-8.38371 q 2.3709,-1.16789 4.82862,-2.14805 z"
       transform="translate(-26.84086,-49.49819)"
       id="path32" />
    <path
       d="m 70.70231,393.77157 a 68.411,68.411 0 0 0 -9.79756,11.93592 69.64577,69.64577 0 0 0 6.37475,-29.25825 c 0,-0.12137 0,-0.24362 -8.8e-4,-0.365 l -8.7e-4,-0.34372 a 68.08661,68.08661 0 0 1 9.26871,-34.32266 l 0.4775,-0.81944 0.68039,0.66 a 66.5738,66.5738 0 0 0 12.42741,9.46305 c -1.15982,16.58902 -8.08576,32.05042 -19.42945,43.0501 z"
       transform="translate(-26.84086,-49.49819)"
       id="path33" />
    <path
       d="m 90.30555,345.03683 8.7e-4,0.34372 c 8.8e-4,0.12134 8.8e-4,0.24359 8.8e-4,0.365 0,0.66884 -0.01212,1.336 -0.0308,2.0021 A 70.9624,70.9624 0 0 1 82.20534,333.834 l -0.18953,-0.41637 0.287,-0.35522 A 68.69044,68.69044 0 0 1 94.6294,321.1406 68.24086,68.24086 0 0 0 90.30555,345.03683 Z"
       transform="translate(-26.84086,-49.49819)"
       id="path34" />
    <path
       d="m 47.67451,424.4753 a 61.60525,61.60525 0 0 0 8.6844,-10.56575 68.06938,68.06938 0 0 0 50.436,96.06741 l 0.33664,0.0549 0.26042,-0.217 a 65.30253,65.30253 0 0 1 14.24289,-9.04108 46.64767,46.64767 0 0 0 -7.54306,8.89047 l -0.72556,1.09052 1.3075,0.0629 c 1.12865,0.0549 2.25012,0.0824 3.33261,0.0824 a 68.72762,68.72762 0 0 0 18.81572,-2.60886 c 27.80451,-7.91072 57.66244,-9.26344 88.74372,-4.0209 a 97.27262,97.27262 0 0 0 16.12839,1.3456 95.7069,95.7069 0 0 0 63.8553,-24.35094 96.23165,96.23165 0 0 1 -86.88309,55.05467 A 97.27245,97.27245 0 0 1 202.538,534.974 c -31.08129,-5.24254 -60.93922,-3.88982 -88.74373,4.0209 a 68.72763,68.72763 0 0 1 -18.81572,2.60887 c -1.08249,0 -2.204,-0.0275 -3.33261,-0.0824 l -1.30749,-0.0629 0.72555,-1.0905 a 46.64834,46.64834 0 0 1 7.54306,-8.89047 65.30253,65.30253 0 0 0 -14.24289,9.04108 l -0.26042,0.217 -0.33663,-0.0549 A 68.10219,68.10219 0 0 1 47.67451,424.4753 Z"
       transform="translate(-26.84086,-49.49819)"
       id="path35" />
  </g>
  <g
     id="g59"
     transform="translate(-2.7268391e-6,-258.10469)">
    <path
       d="m 47.67454,424.47529 c 12.47114,-12.09289 19.605,-29.578 19.605,-48.026 0,-0.12136 0,-0.24361 -8.9e-4,-0.365 l -8.8e-4,-0.34372 a 68.08611,68.08611 0 0 1 9.26876,-34.32266 l 0.47748,-0.81942 0.68034,0.66 A 66.42122,66.42122 0 0 0 95.7006,353.6756 c -5.177,-4.67469 -9.51414,-11.06706 -13.4952,-19.8415 l -0.18957,-0.41636 0.287,-0.35523 a 68.13168,68.13168 0 0 1 103.50749,-3.17935 42.9211,42.9211 0 0 0 32.00348,14.1782 l 0.85264,-0.004 a 96.55467,96.55467 0 0 1 23.36369,2.86576 l 0.58289,0.14617 -0.0208,0.59973 a 65.31307,65.31307 0 0 0 1.62334,16.90044 50.08227,50.08227 0 0 1 3.77686,-15.22262 l 0.26089,-0.64491 0.66085,0.21881 A 96.14585,96.14585 0 0 1 218.66644,536.31967 97.27192,97.27192 0 0 1 202.538,534.974 c -31.0813,-5.24253 -60.93923,-3.88982 -88.74374,4.02092 a 68.72787,68.72787 0 0 1 -18.81567,2.60886 c -1.08252,0 -2.204,-0.0275 -3.33261,-0.0824 l -1.30753,-0.0629 0.72555,-1.09049 a 46.64968,46.64968 0 0 1 7.5431,-8.8905 65.29981,65.29981 0 0 0 -14.24286,9.0411 l -0.26045,0.217 -0.33662,-0.0549 A 68.10219,68.10219 0 0 1 47.67454,424.47529 Z"
       fill="#3f3d56"
       id="path31"
       transform="translate(-26.84086,-49.49819)" />
    <g
       id="g58">
      <polygon
         points="79.28,550.968 139.25,592.007 134.035,560.973 97.223,533.025 "
         fill="#2f2e41"
         id="polygon24" />
      <path
         d="M 195.21,687.42781 H 321.1366 L 316.72,673.11747 v 0 c -27.37332,-9.9093 -11.99769,-31.20879 -38.036,-44.228 C 214.99573,597.04533 190.3394,502.01912 199.66544,464.455 l -41.73625,-1.76471 c 0,0 -57.63806,163.68335 37.28081,224.73752 z"
         transform="translate(-26.84086,-49.49819)"
         fill="#2f2e41"
         id="path25" />
      <path
         d="m 80.55365,605.25219 a 20.7786,20.7786 0 0 0 -7.17833,-14.42261 c -0.0283,-0.0249 -0.05681,-0.05 -0.08529,-0.0747 l -0.08034,-0.0703 a 21.14539,21.14539 0 0 1 -6.10283,-9.20148 l -0.09315,-0.27942 0.29345,-0.0233 a 20.6283,20.6283 0 0 0 6.58691,-1.64977 18.15726,18.15726 0 0 1 -7.395,-0.9227 l -0.136,-0.0412 -0.024,-0.13979 a 21.15953,21.15953 0 0 1 20.48932,-24.78985 13.32987,13.32987 0 0 0 9.87066,-4.555 l 0.17406,-0.19956 a 29.9868,29.9868 0 0 1 5.46049,-4.86055 l 0.15364,-0.106 0.13559,0.12786 a 20.2845,20.2845 0 0 0 4.27411,3.088 15.554,15.554 0 0 1 -2.77519,-4.00312 l -0.0969,-0.19312 0.18657,-0.10923 a 29.85984,29.85984 0 0 1 37.49674,45.49159 30.209,30.209 0 0 1 -3.62195,3.48511 62.224,62.224 0 0 0 -17.26483,21.51959 21.34447,21.34447 0 0 1 -3.251,4.92289 c -0.222,0.25244 -0.45848,0.50834 -0.70277,0.76026 l -0.28286,0.292 -0.10549,-0.39287 a 14.48742,14.48742 0 0 1 -0.526,-3.58259 20.27961,20.27961 0 0 0 -0.813,5.17585 l -0.003,0.10525 -0.0818,0.0672 A 21.15037,21.15037 0 0 1 80.5537,605.2522 Z"
         transform="translate(-26.84086,-49.49819)"
         fill="#3f3d56"
         id="path26" />
      <path
         d="m 83.85266,613.35673 a 21.10374,21.10374 0 0 0 0.238,2.27524 21.39156,21.39156 0 0 1 -3.439,-10.598 c -0.02806,-0.57781 -0.08871,-1.15339 -0.17006,-1.72639 a 20.07562,20.07562 0 0 1 3.37106,10.04915 z"
         transform="translate(-26.84086,-49.49819)"
         opacity="0.15"
         id="path27" />
      <path
         d="m 77.193,587.63524 a 20.59681,20.59681 0 0 1 -5.2637,1.48826 21.18029,21.18029 0 0 1 -1.92868,-2.3532 17.94731,17.94731 0 0 0 7.19238,0.86494 z"
         transform="translate(-26.84086,-49.49819)"
         opacity="0.15"
         id="path28" />
      <path
         d="m 69.436,580.68579 a 21.28893,21.28893 0 0 0 0.1506,5.491 21.04389,21.04389 0 0 1 -2.3818,-4.91186 l -0.09316,-0.27943 0.29346,-0.0233 a 20.4517,20.4517 0 0 0 2.0309,-0.27642 z"
         transform="translate(-26.84086,-49.49819)"
         opacity="0.15"
         id="path29" />
      <path
         d="m 71.39415,560.60073 a 21.20931,21.20931 0 0 1 15.53218,-7.18179 13.33,13.33 0 0 0 9.87069,-4.555 l 0.174,-0.19955 a 29.98717,29.98717 0 0 1 5.46048,-4.86056 l 0.15364,-0.10593 0.13559,0.12785 a 20.28377,20.28377 0 0 0 4.27415,3.08794 15.55474,15.55474 0 0 1 -2.77529,-4.00312 l -0.0968,-0.19312 0.18655,-0.10921 A 29.83764,29.83764 0 0 1 148.5163,561.925 29.84315,29.84315 0 0 0 107.51045,550.931 l -0.18655,0.10921 0.0968,0.19311 a 15.5548,15.5548 0 0 0 2.77529,4.00313 20.28412,20.28412 0 0 1 -4.27415,-3.08794 l -0.13559,-0.12786 -0.15364,0.10594 a 29.98711,29.98711 0 0 0 -5.46048,4.86055 l -0.174,0.19956 a 13.33,13.33 0 0 1 -9.87069,4.555 21.16316,21.16316 0 0 0 -20.46769,17.3933 25.64845,25.64845 0 0 1 -3.06273,-0.74529 l -0.136,-0.0412 -0.02407,-0.13978 a 21.07824,21.07824 0 0 1 4.9572,-17.60802 z"
         transform="translate(-26.84086,-49.49819)"
         opacity="0.15"
         id="path30" />
      <path
         d="m 249.95929,651.56327 c -3.79958,-7.035 -4.33,-16.25537 0.33531,-22.74859 a 36.83843,36.83843 0 0 0 14.67507,20.5993 c 2.77181,1.88719 6.05124,3.69758 6.99947,6.914 a 8.23488,8.23488 0 0 1 -0.85864,6.04445 24.4571,24.4571 0 0 1 -3.79505,4.95494 l -0.13433,0.50325 c -6.87844,-4.07619 -13.42226,-9.23233 -17.22183,-16.26735 z"
         transform="translate(-26.84086,-49.49819)"
         fill="#3f3d56"
         id="path46" />
    </g>
  </g>
</svg>
